<?xml version="1.0" encoding="UTF-8"?>
<!DOCTYPE svg PUBLIC "-//W3C//DTD SVG 1.1//EN" "http://www.w3.org/Graphics/SVG/1.1/DTD/svg11.dtd">
<!-- Creator: CorelDRAW X6 -->
<svg xmlns="http://www.w3.org/2000/svg" xml:space="preserve" width="10.4167in" height="6.94444in" version="1.1" style="shape-rendering:geometricPrecision; text-rendering:geometricPrecision; image-rendering:optimizeQuality; fill-rule:evenodd; clip-rule:evenodd"
viewBox="0 0 10417 6944"
 xmlns:xlink="http://www.w3.org/1999/xlink">
 <defs>
  <style type="text/css">
   <![CDATA[
    .fil2 {fill:#009580;fill-rule:nonzero}
    .fil16 {fill:#0099D8;fill-rule:nonzero}
    .fil0 {fill:#242F3A;fill-rule:nonzero}
    .fil1 {fill:#F26C60;fill-rule:nonzero}
    .fil3 {fill:#FCC99B;fill-rule:nonzero}
    .fil6 {fill:url(#id0)}
    .fil4 {fill:url(#id1)}
    .fil5 {fill:url(#id2)}
    .fil7 {fill:url(#id3)}
    .fil13 {fill:url(#id4)}
    .fil8 {fill:url(#id5)}
    .fil14 {fill:url(#id6)}
    .fil11 {fill:url(#id7)}
    .fil12 {fill:url(#id8)}
    .fil9 {fill:url(#id9)}
    .fil10 {fill:url(#id10)}
    .fil15 {fill:url(#id11)}
   ]]>
  </style>
  <linearGradient id="id0" gradientUnits="userSpaceOnUse" x1="947.913" y1="2451.37" x2="947.913" y2="1736.1">
   <stop offset="0" style="stop-color:#FCC99B"/>
   <stop offset="0" style="stop-color:#FCC99B"/>
   <stop offset="1" style="stop-color:#273040"/>
  </linearGradient>
  <linearGradient id="id1" gradientUnits="userSpaceOnUse" xlink:href="#id0" x1="1763.89" y1="4121.52" x2="1763.89" y2="3406.25">
  </linearGradient>
  <linearGradient id="id2" gradientUnits="userSpaceOnUse" xlink:href="#id0" x1="2100.69" y1="784.693" x2="2100.69" y2="69.4173">
  </linearGradient>
  <linearGradient id="id3" gradientUnits="userSpaceOnUse" xlink:href="#id0" x1="3031.25" y1="1812.48" x2="3031.25" y2="1097.2">
  </linearGradient>
  <linearGradient id="id4" gradientUnits="userSpaceOnUse" xlink:href="#id0" x1="3958.33" y1="3555.56" x2="3958.33" y2="2840.28">
  </linearGradient>
  <linearGradient id="id5" gradientUnits="userSpaceOnUse" xlink:href="#id0" x1="4781.25" y1="1284.69" x2="4781.25" y2="569.417">
  </linearGradient>
  <linearGradient id="id6" gradientUnits="userSpaceOnUse" xlink:href="#id0" x1="5902.78" y1="4069.44" x2="5902.78" y2="3354.17">
  </linearGradient>
  <linearGradient id="id7" gradientUnits="userSpaceOnUse" xlink:href="#id0" x1="6930.56" y1="2767.36" x2="6930.56" y2="2052.08">
  </linearGradient>
  <linearGradient id="id8" gradientUnits="userSpaceOnUse" xlink:href="#id0" x1="7916.67" y1="947.913" x2="7916.67" y2="232.638">
  </linearGradient>
  <linearGradient id="id9" gradientUnits="userSpaceOnUse" xlink:href="#id0" x1="9319.44" y1="4936.62" x2="9319.44" y2="4221.35">
  </linearGradient>
  <linearGradient id="id10" gradientUnits="userSpaceOnUse" xlink:href="#id0" x1="9722.22" y1="2089.4" x2="9722.22" y2="1374.12">
  </linearGradient>
  <linearGradient id="id11" gradientUnits="userSpaceOnUse" xlink:href="#id0" x1="10222.2" y1="3475.69" x2="10222.2" y2="2760.42">
  </linearGradient>
 </defs>
 <g id="Layer_x0020_1">
  <metadata id="CorelCorpID_0Corel-Layer"/>
  <polygon class="fil0" points="0,6944 10417,6944 10417,0 0,0 "/>
  <polygon class="fil1" points="1181,896 1285,896 1285,792 1181,792 "/>
  <polygon class="fil1" points="4083,444 4188,444 4188,340 4083,340 "/>
  <polygon class="fil1" points="2694,2330 2799,2330 2799,2226 2694,2226 "/>
  <path class="fil1" d="M4783 3094l-240 0 0 240 240 0 0 -240zm-28 28l0 184 -184 0 0 -184 184 0z"/>
  <polygon class="fil1" points="10417,1831 10297,1831 10297,2071 10417,2071 10417,2044 10325,2044 10325,1859 10417,1859 "/>
  <polygon class="fil1" points="212,3644 0,3644 0,3672 184,3672 184,3856 0,3856 0,3884 212,3884 "/>
  <path class="fil1" d="M8449 4036l-240 0 0 240 240 0 0 -240zm-28 28l0 184 -184 0 0 -184 184 0z"/>
  <path class="fil1" d="M2703 1064l-240 0 0 240 240 0 0 -240zm-28 28l0 184 -184 0 0 -184 184 0z"/>
  <path class="fil1" d="M8512 1689l-240 0 0 240 240 0 0 -240zm-28 28l0 184 -184 0 0 -184 184 0z"/>
  <polygon class="fil1" points="2490,2622 2594,2622 2594,2517 2490,2517 "/>
  <polygon class="fil1" points="1764,5042 1868,5042 1868,4938 1764,4938 "/>
  <polygon class="fil1" points="4188,3969 4292,3969 4292,3865 4188,3865 "/>
  <polygon class="fil1" points="7076,3917 7181,3917 7181,3813 7076,3813 "/>
  <polygon class="fil1" points="7076,653 7181,653 7181,549 7076,549 "/>
  <polygon class="fil1" points="6323,3260 6427,3260 6427,3156 6323,3156 "/>
  <polygon class="fil1" points="9003,1108 9108,1108 9108,1003 9003,1003 "/>
  <polygon class="fil2" points="1349,2266 1432,2266 1432,2182 1349,2182 "/>
  <polygon class="fil2" points="458,2854 542,2854 542,2771 458,2771 "/>
  <polygon class="fil2" points="2542,476 2625,476 2625,392 2542,392 "/>
  <polygon class="fil2" points="3153,2771 3236,2771 3236,2688 3153,2688 "/>
  <polygon class="fil2" points="9569,434 9653,434 9653,351 9569,351 "/>
  <polygon class="fil2" points="7431,2160 7514,2160 7514,2076 7431,2076 "/>
  <polygon class="fil2" points="5042,1149 5125,1149 5125,1066 5042,1066 "/>
  <polygon class="fil2" points="9014,2729 9097,2729 9097,2646 9014,2646 "/>
  <polygon class="fil2" points="7972,4625 8056,4625 8056,4542 7972,4542 "/>
  <polygon class="fil2" points="3417,1507 3549,1507 3549,1375 3417,1375 "/>
  <polygon class="fil2" points="4253,1913 4385,1913 4385,1781 4253,1781 "/>
  <polygon class="fil2" points="4910,4455 5042,4455 5042,4323 4910,4323 "/>
  <polygon class="fil2" points="5490,2476 5622,2476 5622,2344 5490,2344 "/>
  <polygon class="fil2" points="2101,3538 2233,3538 2233,3406 2101,3406 "/>
  <polygon class="fil2" points="7906,2920 8038,2920 8038,2788 7906,2788 "/>
  <polygon class="fil2" points="8524,667 8656,667 8656,535 8524,535 "/>
  <path class="fil3" d="M1823 1448l69 0 0 -69 -69 0 0 69zm83 14l-97 0 0 -97 97 0 0 97z"/>
  <path class="fil3" d="M1398 2997l69 0 0 -69 -69 0 0 69zm83 14l-97 0 0 -97 97 0 0 97z"/>
  <path class="fil3" d="M3701 2111l69 0 0 -69 -69 0 0 69zm83 14l-97 0 0 -97 97 0 0 97z"/>
  <path class="fil3" d="M5628 5771l69 0 0 -69 -69 0 0 69zm83 14l-97 0 0 -97 97 0 0 97z"/>
  <path class="fil3" d="M326 427l69 0 0 -69 -69 0 0 69zm83 14l-97 0 0 -97 97 0 0 97z"/>
  <path class="fil3" d="M8118 3191l69 0 0 -69 -69 0 0 69zm83 14l-97 0 0 -97 97 0 0 97z"/>
  <path class="fil3" d="M6365 333l125 0 0 -125 -125 0 0 125zm139 14l-153 0 0 -153 153 0 0 153z"/>
  <path class="fil3" d="M3243 4688l125 0 0 -125 -125 0 0 125zm139 14l-153 0 0 -153 153 0 0 153z"/>
  <polygon class="fil3" points="4778,76 4903,76 4903,0 4917,0 4917,90 4764,90 4764,0 4778,0 "/>
  <path class="fil3" d="M4847 2750l125 0 0 -125 -125 0 0 125zm139 14l-153 0 0 -153 153 0 0 153z"/>
  <polygon class="fil4" points="1757,4122 1771,4122 1771,3406 1757,3406 "/>
  <path class="fil3" d="M549 1247l125 0 0 -125 -125 0 0 125zm139 14l-153 0 0 -153 153 0 0 153z"/>
  <polygon class="fil5" points="2094,785 2108,785 2108,69 2094,69 "/>
  <polygon class="fil6" points="941,2451 955,2451 955,1736 941,1736 "/>
  <polygon class="fil7" points="3024,1812 3038,1812 3038,1097 3024,1097 "/>
  <polygon class="fil8" points="4774,1285 4788,1285 4788,569 4774,569 "/>
  <path class="fil3" d="M9257 5341l125 0 0 -125 -125 0 0 125zm139 14l-153 0 0 -153 153 0 0 153z"/>
  <polygon class="fil9" points="9313,4937 9326,4937 9326,4221 9313,4221 "/>
  <polygon class="fil10" points="9715,2089 9729,2089 9729,1374 9715,1374 "/>
  <path class="fil3" d="M8260 1198l125 0 0 -125 -125 0 0 125zm139 14l-153 0 0 -153 153 0 0 153z"/>
  <polygon class="fil11" points="6924,2767 6938,2767 6938,2052 6924,2052 "/>
  <polygon class="fil12" points="7910,948 7924,948 7924,233 7910,233 "/>
  <polygon class="fil13" points="3951,3556 3965,3556 3965,2840 3951,2840 "/>
  <polygon class="fil14" points="5896,4069 5910,4069 5910,3354 5896,3354 "/>
  <polygon class="fil15" points="10215,3476 10229,3476 10229,2760 10215,2760 "/>
  <polygon class="fil16" points="4355,1226 4367,1226 4367,1184 4355,1184 "/>
  <polygon class="fil16" points="4355,1309 4367,1309 4367,1267 4355,1267 "/>
  <polygon class="fil16" points="4355,1393 4367,1393 4367,1350 4355,1350 "/>
  <polygon class="fil16" points="4355,1476 4367,1476 4367,1434 4355,1434 "/>
  <polygon class="fil16" points="4355,1559 4367,1559 4367,1517 4355,1517 "/>
  <polygon class="fil16" points="2085,1834 2133,1834 2133,1792 2085,1792 "/>
  <polygon class="fil16" points="2085,1917 2133,1917 2133,1875 2085,1875 "/>
  <polygon class="fil16" points="2085,2000 2133,2000 2133,1958 2085,1958 "/>
  <polygon class="fil16" points="2085,2084 2133,2084 2133,2042 2085,2042 "/>
  <polygon class="fil16" points="2085,2167 2133,2167 2133,2125 2085,2125 "/>
  <polygon class="fil16" points="10022,1917 10069,1917 10069,1875 10022,1875 "/>
  <polygon class="fil16" points="10022,2000 10069,2000 10069,1958 10022,1958 "/>
  <polygon class="fil16" points="10022,2083 10069,2083 10069,2041 10022,2041 "/>
  <polygon class="fil16" points="10022,2167 10069,2167 10069,2125 10022,2125 "/>
  <polygon class="fil16" points="10022,2250 10069,2250 10069,2208 10022,2208 "/>
  <polygon class="fil16" points="7435,3646 7482,3646 7482,3604 7435,3604 "/>
  <polygon class="fil16" points="7435,3729 7482,3729 7482,3687 7435,3687 "/>
  <polygon class="fil16" points="7435,3813 7482,3813 7482,3771 7435,3771 "/>
  <polygon class="fil16" points="7435,3896 7482,3896 7482,3854 7435,3854 "/>
  <polygon class="fil16" points="7435,3979 7482,3979 7482,3937 7435,3937 "/>
  <polygon class="fil16" points="5931,431 5978,431 5978,388 5931,388 "/>
  <polygon class="fil16" points="5931,514 5978,514 5978,472 5931,472 "/>
  <polygon class="fil16" points="5931,597 5978,597 5978,555 5931,555 "/>
  <polygon class="fil16" points="5931,681 5978,681 5978,638 5931,638 "/>
  <polygon class="fil16" points="5931,764 5978,764 5978,722 5931,722 "/>
  <polygon class="fil16" points="819,195 867,195 867,153 819,153 "/>
  <polygon class="fil16" points="819,278 867,278 867,236 819,236 "/>
  <polygon class="fil16" points="819,362 867,362 867,319 819,319 "/>
  <polygon class="fil16" points="819,445 867,445 867,403 819,403 "/>
  <polygon class="fil16" points="819,528 867,528 867,486 819,486 "/>
  <polygon class="fil16" points="6022,2362 6042,2362 6042,2319 6022,2319 "/>
  <polygon class="fil16" points="6022,2445 6042,2445 6042,2403 6022,2403 "/>
  <polygon class="fil16" points="6022,2528 6042,2528 6042,2486 6022,2486 "/>
  <polygon class="fil16" points="6022,2612 6042,2612 6042,2569 6022,2569 "/>
  <polygon class="fil16" points="6022,2695 6042,2695 6042,2653 6022,2653 "/>
  <polygon class="fil16" points="5421,3052 5433,3052 5433,3010 5421,3010 "/>
  <polygon class="fil16" points="5421,3136 5433,3136 5433,3094 5421,3094 "/>
  <polygon class="fil16" points="5421,3219 5433,3219 5433,3177 5421,3177 "/>
  <polygon class="fil16" points="5421,3302 5433,3302 5433,3260 5421,3260 "/>
  <polygon class="fil16" points="5421,3386 5433,3386 5433,3344 5421,3344 "/>
  <polygon class="fil16" points="10210,1059 10222,1059 10222,1017 10210,1017 "/>
  <polygon class="fil16" points="10210,1143 10222,1143 10222,1100 10210,1100 "/>
  <polygon class="fil16" points="10210,1226 10222,1226 10222,1184 10210,1184 "/>
  <polygon class="fil16" points="10210,1309 10222,1309 10222,1267 10210,1267 "/>
  <polygon class="fil16" points="10210,1393 10222,1393 10222,1350 10210,1350 "/>
  <polygon class="fil16" points="8317,56 8329,56 8329,14 8317,14 "/>
  <polygon class="fil16" points="8317,139 8329,139 8329,97 8317,97 "/>
  <polygon class="fil16" points="8317,222 8329,222 8329,180 8317,180 "/>
  <polygon class="fil16" points="8317,306 8329,306 8329,264 8317,264 "/>
  <polygon class="fil16" points="8317,389 8329,389 8329,347 8317,347 "/>
  <polygon class="fil16" points="4446,4980 4458,4980 4458,4938 4446,4938 "/>
  <polygon class="fil16" points="4446,5063 4458,5063 4458,5021 4446,5021 "/>
  <polygon class="fil16" points="4446,5146 4458,5146 4458,5104 4446,5104 "/>
  <polygon class="fil16" points="4446,5230 4458,5230 4458,5188 4446,5188 "/>
  <polygon class="fil16" points="4446,5313 4458,5313 4458,5271 4446,5271 "/>
  <polygon class="fil16" points="6540,1559 6552,1559 6552,1517 6540,1517 "/>
  <polygon class="fil16" points="6540,1643 6552,1643 6552,1600 6540,1600 "/>
  <polygon class="fil16" points="6540,1726 6552,1726 6552,1684 6540,1684 "/>
  <polygon class="fil16" points="6540,1809 6552,1809 6552,1767 6540,1767 "/>
  <polygon class="fil16" points="6540,1893 6552,1893 6552,1850 6540,1850 "/>
  <polygon class="fil16" points="6269,4177 6280,4177 6280,4135 6269,4135 "/>
  <polygon class="fil16" points="6269,4261 6280,4261 6280,4219 6269,4219 "/>
  <polygon class="fil16" points="6269,4344 6280,4344 6280,4302 6269,4302 "/>
  <polygon class="fil16" points="6269,4427 6280,4427 6280,4385 6269,4385 "/>
  <polygon class="fil16" points="6269,4511 6280,4511 6280,4469 6269,4469 "/>
  <polygon class="fil16" points="5427,1559 5439,1559 5439,1517 5427,1517 "/>
  <polygon class="fil16" points="5427,1643 5439,1643 5439,1600 5427,1600 "/>
  <polygon class="fil16" points="5427,1726 5439,1726 5439,1684 5427,1684 "/>
  <polygon class="fil16" points="5427,1809 5439,1809 5439,1767 5427,1767 "/>
  <polygon class="fil16" points="5427,1893 5439,1893 5439,1850 5427,1850 "/>
  <polygon class="fil16" points="3477,521 3489,521 3489,479 3477,479 "/>
  <polygon class="fil16" points="3477,604 3489,604 3489,562 3477,562 "/>
  <polygon class="fil16" points="3477,688 3489,688 3489,646 3477,646 "/>
  <polygon class="fil16" points="3477,771 3489,771 3489,729 3477,729 "/>
  <polygon class="fil16" points="3477,854 3489,854 3489,812 3477,812 "/>
  <polygon class="fil16" points="2855,2969 2867,2969 2867,2927 2855,2927 "/>
  <polygon class="fil16" points="2855,3052 2867,3052 2867,3010 2855,3010 "/>
  <polygon class="fil16" points="2855,3136 2867,3136 2867,3094 2855,3094 "/>
  <polygon class="fil16" points="2855,3219 2867,3219 2867,3177 2855,3177 "/>
  <polygon class="fil16" points="2855,3302 2867,3302 2867,3260 2855,3260 "/>
  <polygon class="fil16" points="397,1972 409,1972 409,1930 397,1930 "/>
  <polygon class="fil16" points="397,2056 409,2056 409,2014 397,2014 "/>
  <polygon class="fil16" points="397,2139 409,2139 409,2097 397,2097 "/>
  <polygon class="fil16" points="397,2222 409,2222 409,2180 397,2180 "/>
  <polygon class="fil16" points="397,2306 409,2306 409,2264 397,2264 "/>
  <polygon class="fil16" points="7122,1288 7134,1288 7134,1246 7122,1246 "/>
  <polygon class="fil16" points="7122,1372 7134,1372 7134,1329 7122,1329 "/>
  <polygon class="fil16" points="7122,1455 7134,1455 7134,1413 7122,1413 "/>
  <polygon class="fil16" points="7122,1538 7134,1538 7134,1496 7122,1496 "/>
  <polygon class="fil16" points="7122,1622 7134,1622 7134,1579 7122,1579 "/>
  <polygon class="fil16" points="9502,2330 9514,2330 9514,2288 9502,2288 "/>
  <polygon class="fil16" points="9502,2413 9514,2413 9514,2371 9502,2371 "/>
  <polygon class="fil16" points="9502,2497 9514,2497 9514,2455 9502,2455 "/>
  <polygon class="fil16" points="9502,2580 9514,2580 9514,2538 9502,2538 "/>
  <polygon class="fil16" points="9502,2663 9514,2663 9514,2621 9502,2621 "/>
  <polygon class="fil16" points="8650,35 8662,35 8662,0 8650,0 "/>
  <polygon class="fil16" points="8650,118 8662,118 8662,76 8650,76 "/>
  <polygon class="fil16" points="8650,201 8662,201 8662,159 8650,159 "/>
  <polygon class="fil16" points="8650,285 8662,285 8662,243 8650,243 "/>
  <polygon class="fil16" points="8650,368 8662,368 8662,326 8650,326 "/>
 </g>
</svg>
