<?xml version="1.0" encoding="iso-8859-1"?>
<!-- Generator: Adobe Illustrator 19.0.0, SVG Export Plug-In . SVG Version: 6.00 Build 0)  -->
<svg version="1.1" id="Capa_1" xmlns="http://www.w3.org/2000/svg" xmlns:xlink="http://www.w3.org/1999/xlink" x="0px" y="0px"
	 viewBox="0 0 503.86 503.86" style="enable-background:new 0 0 503.86 503.86;" xml:space="preserve">
<g>
	<path style="fill:#CB8252;" d="M426.01,304.267c-15.669-0.019-29.401,10.476-33.497,25.6l-0.087,0.434H111.434l-0.087-0.434
		c-4.096-15.124-17.828-25.619-33.497-25.6l-77.581,0v147.525c0.023,28.747,23.321,52.045,52.068,52.068h399.186
		c28.747-0.023,52.045-23.321,52.068-52.068V304.267L426.01,304.267z"/>
	<g>
		<path style="fill:#805333;" d="M165.15,434.436H338.71c9.585,0,17.356,7.771,17.356,17.356l0,0
			c0,9.585-7.771,17.356-17.356,17.356H165.15c-9.585,0-17.356-7.771-17.356-17.356l0,0
			C147.794,442.207,155.565,434.436,165.15,434.436z"/>
		<path style="fill:#805333;" d="M392.426,330.301l-12.062,43.824c-4.096,15.124-17.828,25.619-33.497,25.6H156.993
			c-15.668,0.019-29.401-10.476-33.497-25.6l-12.062-43.824H392.426z"/>
	</g>
	<circle style="fill:#4482C3;" cx="251.93" cy="173.559" r="173.559"/>
	<path style="fill:#E6E7E8;" d="M318.978,221.898l-59.789,73.075c-1.648,2.014-4.114,3.183-6.716,3.183
		c-2.603,0-5.068-1.168-6.716-3.183l-59.789-73.076c-2.123-2.595-2.562-6.181-1.126-9.211c1.436-3.03,4.489-4.962,7.842-4.962
		h25.077c4.793,0,8.678-3.885,8.678-8.678V60.199c0-4.793,3.885-8.678,8.678-8.678h34.712c4.793,0,8.678,3.885,8.678,8.678v138.847
		c0,4.793,3.885,8.678,8.678,8.678h25.078c3.353,0,6.406,1.932,7.842,4.962C321.54,215.716,321.101,219.303,318.978,221.898z"/>
</g>
<g>
</g>
<g>
</g>
<g>
</g>
<g>
</g>
<g>
</g>
<g>
</g>
<g>
</g>
<g>
</g>
<g>
</g>
<g>
</g>
<g>
</g>
<g>
</g>
<g>
</g>
<g>
</g>
<g>
</g>
</svg>
