<?xml version="1.0"?>
<svg xmlns="http://www.w3.org/2000/svg" width="512" height="512" viewBox="0 0 128 128"><g><path d="M91.471,52.654A30.545,30.545,0,0,0,75.333,36.527a1.75,1.75,0,0,0-1.92.373l-7.141,7.14a1.75,1.75,0,0,0,.877,2.95A18.019,18.019,0,0,1,79.035,73.5a17.694,17.694,0,0,1-2.912,3.831L47.982,105.47A18,18,0,1,1,22.518,80.025l6.609-6.61a1.75,1.75,0,0,0,.465-1.646,35.966,35.966,0,0,1-.878-11.263,1.75,1.75,0,0,0-2.982-1.376L13.683,71.18a30.5,30.5,0,0,0,43.134,43.135l28.151-28.15a29.362,29.362,0,0,0,2.629-3.01A30.582,30.582,0,0,0,92.66,55.976,31.734,31.734,0,0,0,91.471,52.654ZM84.815,81.031a26,26,0,0,1-2.322,2.659l-28.15,28.15A27,27,0,0,1,16.157,73.655l8.965-8.965a39.32,39.32,0,0,0,.848,6.933L20.043,77.55a21.5,21.5,0,1,0,30.414,30.395L78.6,79.805a21.135,21.135,0,0,0,3.482-4.578A21.523,21.523,0,0,0,70.841,44.421l4.193-4.192A27.053,27.053,0,0,1,88.245,54.012,28.128,28.128,0,0,1,89.3,56.959h0A27.072,27.072,0,0,1,84.815,81.031Z"/><path d="M114.317,13.685a30.533,30.533,0,0,0-43.134,0L43.032,41.835a29.362,29.362,0,0,0-2.629,3.01A30.579,30.579,0,0,0,35.34,72.023a31.747,31.747,0,0,0,1.189,3.323A30.545,30.545,0,0,0,52.667,91.473a1.749,1.749,0,0,0,1.92-.373l7.141-7.14a1.75,1.75,0,0,0-.877-2.95A18.019,18.019,0,0,1,48.965,54.5a17.694,17.694,0,0,1,2.912-3.831L80.018,22.53a18,18,0,1,1,25.464,25.445l-6.609,6.61a1.75,1.75,0,0,0-.465,1.646,35.966,35.966,0,0,1,.878,11.263,1.75,1.75,0,0,0,2.982,1.376l12.049-12.05a30.5,30.5,0,0,0,0-43.135Zm-2.474,40.66-8.965,8.965a39.32,39.32,0,0,0-.848-6.933l5.927-5.927a21.5,21.5,0,1,0-30.414-30.4L49.4,48.2a21.135,21.135,0,0,0-3.482,4.578A21.523,21.523,0,0,0,57.159,83.579l-4.193,4.192A27.053,27.053,0,0,1,39.755,73.988,28.305,28.305,0,0,1,38.7,71.04a27.072,27.072,0,0,1,4.486-24.071,26,26,0,0,1,2.322-2.659l28.15-28.15a27,27,0,0,1,38.186,38.185Z"/></g></svg>
