<svg id="Capa_1" enable-background="new 0 0 511.997 511.997" height="512" viewBox="0 0 511.997 511.997" width="512" xmlns="http://www.w3.org/2000/svg"><g><path d="m511.967 47.546c-.612-9.754-10.503-16.825-20.57-12.972-2.558 1.031 21.188-15.597-340.098 241.698-3.952 2.815-6.298 7.367-6.298 12.218v175c0 6.909 4.735 12.977 11.531 14.593 6.747 1.604 13.733-1.629 16.865-7.843 5.555-11.024 54.694-108.535 63.008-125.032l271.481-286.397c2.891-3.05 4.344-7.131 4.081-11.265z"/><path d="m261.209 362.649-7.363 14.61 112.214 83.278c8.313 6.17 20.262 2.246 23.287-7.669l101.359-332.326z"/><path d="m133.896 251.836 244.5-174.125-368.746 140.767c-5.801 2.215-9.638 7.775-9.65 13.984-.012 6.21 3.803 11.785 9.596 14.022l105.443 40.723c.404-14.044 7.374-27.193 18.857-35.371z"/></g></svg>